<svg xmlns="http://www.w3.org/2000/svg" viewBox="0 0 33.5 33.68"><defs><style>.cls-1{fill:none;}.cls-1,.cls-2{stroke:#535353;stroke-linecap:round;stroke-linejoin:round;stroke-width:2px;}</style></defs><g id="레이어_2" data-name="레이어 2"><g id="레이어_1-2" data-name="레이어 1"><g id="그룹_35" data-name="그룹 35"><path id="패스_14" data-name="패스 14" class="cls-1" d="M30.43,3h0a7,7,0,0,0-9.91,0l-17,17.11a3.62,3.62,0,0,0-1,1.91L1.29,28.93l3.47,3.44,6.83-1.3a3.67,3.67,0,0,0,1.9-1L30.47,13a7,7,0,0,0,0-9.91Z"/><path id="패스_15" data-name="패스 15" class="cls-2" d="M3.34,32.64l1.42-.27L1.29,28.93,1,30.35a2,2,0,0,0,1.59,2.29A1.75,1.75,0,0,0,3.34,32.64Z"/><line id="선_15" data-name="선 15" class="cls-1" x1="3.54" y1="20.18" x2="13.49" y2="30.06"/><line id="선_16" data-name="선 16" class="cls-1" x1="20.52" y1="3.07" x2="30.47" y2="12.95"/></g></g></g></svg>