<svg xmlns="http://www.w3.org/2000/svg" width="27" height="27" viewBox="0 0 27 27"><defs><style>.a{fill:#e84949;}.b{fill:#fff;}</style></defs><g transform="translate(-610.986 -784.981)"><path class="a" d="M13.5,0A13.5,13.5,0,1,1,0,13.5,13.5,13.5,0,0,1,13.5,0Z" transform="translate(610.986 784.981)"/><path class="b" d="M633.105,800.774h-4.857v-4.857a.734.734,0,1,0-1.469,0v4.857h-4.858a.734.734,0,0,0,0,1.469h4.858V807.1a.734.734,0,0,0,1.469,0v-4.857h4.857a.734.734,0,0,0,0-1.469Z" transform="translate(-3.027 -3.028)"/></g></svg>