<svg xmlns="http://www.w3.org/2000/svg" width="28" height="28" viewBox="0 0 28 28"><defs><style>.a{fill:#e84949;}.b{fill:#fff;}</style></defs><g transform="translate(-1119.9 -257.413)"><circle class="a" cx="14" cy="14" r="14" transform="translate(1119.9 257.413)"/><path class="b" d="M1142.329,273.139l-1.5-2.377a.857.857,0,0,0-1.17-.192l-2.174,1.7a.75.75,0,0,0,.462,1.341.742.742,0,0,0,.46-.158l.842-.657a5.68,5.68,0,0,1-5.315,4.207,5.463,5.463,0,0,1-4.844-3.023.75.75,0,0,0-1.34.672,6.964,6.964,0,0,0,6.194,3.851,7.2,7.2,0,0,0,6.722-5.188l.4.63a.749.749,0,0,0,1.267-.8Z"/><path class="b" d="M1127.684,272.414a.745.745,0,0,0,.46-.159l2.173-1.7a.75.75,0,1,0-.921-1.183l-.843.657a5.679,5.679,0,0,1,5.315-4.2,5.469,5.469,0,0,1,4.845,3.022.75.75,0,0,0,1.34-.674,6.971,6.971,0,0,0-6.2-3.848,7.2,7.2,0,0,0-6.72,5.187l-.4-.631a.75.75,0,1,0-1.267.8l1.5,2.376a.747.747,0,0,0,.633.35c.015,0,.029-.006.044-.007A.317.317,0,0,0,1127.684,272.414Z"/></g></svg>