<?xml version="1.0" encoding="utf-8"?>
<!-- Generator: Adobe Illustrator 24.3.0, SVG Export Plug-In . SVG Version: 6.00 Build 0)  -->
<svg version="1.1" id="레이어_1" xmlns="http://www.w3.org/2000/svg" xmlns:xlink="http://www.w3.org/1999/xlink" x="0px"
	 y="0px" viewBox="0 0 27 27" style="enable-background:new 0 0 27 27;" xml:space="preserve">
<style type="text/css">
	.st0{fill:none;stroke:#9E9E9E;stroke-miterlimit:10;}
	.st1{fill:#9E9E9E;}
	.st2{fill:#FFFFFF;}
</style>
<path class="st0" d="M20,9.7h-1.1c-0.5,0-1-0.3-1.1-0.8l-0.2-0.6C17.3,7.5,16.6,7,15.8,7h-4.7c-0.8,0-1.5,0.5-1.7,1.2L9.2,8.8
	C9.1,9.3,8.6,9.7,8.1,9.7H7c-1,0-1.9,0.9-1.9,1.9v7.3c0,1,0.9,1.9,1.9,1.9H20c1,0,1.9-0.9,1.9-1.9v-7.3C21.9,10.5,21,9.7,20,9.7z"/>
<circle class="st0" cx="13.5" cy="14.9" r="3.3"/>
<g>
	<path class="st1" d="M21.9,14.2c-0.6,0-1-0.4-1-1v-1.6h-1.6c-0.6,0-1-0.4-1-1s0.4-1,1-1h1.6V7.9c0-0.6,0.4-1,1-1s1,0.4,1,1v1.6h1.6
		c0.6,0,1,0.4,1,1s-0.4,1-1,1h-1.6v1.6C22.9,13.7,22.4,14.2,21.9,14.2z"/>
	<path class="st2" d="M21.9,7.4c0.3,0,0.5,0.2,0.5,0.5v2.1h2.1c0.3,0,0.5,0.2,0.5,0.5c0,0.3-0.2,0.5-0.5,0.5h-2.1v2.1
		c0,0.3-0.2,0.5-0.5,0.5c-0.3,0-0.5-0.2-0.5-0.5v-2.1h-2.1c-0.3,0-0.5-0.2-0.5-0.5c0-0.3,0.2-0.5,0.5-0.5h2.1V7.9
		C21.4,7.6,21.6,7.4,21.9,7.4 M21.9,6.4c-0.8,0-1.5,0.7-1.5,1.5v1.1h-1.1c-0.8,0-1.5,0.7-1.5,1.5c0,0.8,0.7,1.5,1.5,1.5h1.1v1.1
		c0,0.8,0.7,1.5,1.5,1.5c0.8,0,1.5-0.7,1.5-1.5v-1.1h1.1c0.8,0,1.5-0.7,1.5-1.5c0-0.8-0.7-1.5-1.5-1.5h-1.1V7.9
		C23.4,7.1,22.7,6.4,21.9,6.4L21.9,6.4z"/>
</g>
</svg>
